<svg width="54" height="64" viewBox="0 0 54 64" fill="none" xmlns="http://www.w3.org/2000/svg">
<path fill-rule="evenodd" clip-rule="evenodd" d="M52.0851 13.6366L46.7679 2.83331C46.3037 1.8627 45.1221 1.4829 44.1515 1.94711L33.3482 7.26434C32.3776 7.72854 31.9978 8.91015 32.462 9.88076C32.9262 10.8514 34.1078 11.2312 35.0784 10.767L41.7039 7.51754C34.783 25.3683 12.2481 36.1293 2.79519 38.366C1.74018 38.6192 1.10718 39.6742 1.36038 40.687C1.57138 41.5732 2.37319 42.2062 3.25939 42.2062C3.38599 42.2062 3.5548 42.2062 3.7236 42.164C14.2737 39.6742 37.948 28.3645 45.4175 8.82575L48.6669 15.409C49.0045 16.0842 49.6797 16.5062 50.3971 16.5062C50.6925 16.5062 50.9879 16.4218 51.2411 16.2952C52.1695 15.7466 52.5493 14.6072 52.0851 13.6366Z" stroke="#1A2B56" stroke-width="2" stroke-linecap="round" stroke-linejoin="round"/>
<path fill-rule="evenodd" clip-rule="evenodd" d="M52.0851 13.6366L46.7679 2.83331C46.3037 1.8627 45.1221 1.4829 44.1515 1.94711L33.3482 7.26434C32.3776 7.72854 31.9978 8.91015 32.462 9.88076C32.9262 10.8514 34.1078 11.2312 35.0784 10.767L41.7039 7.51754C34.783 25.3683 12.2481 36.1293 2.79519 38.366C1.74018 38.6192 1.10718 39.6742 1.36038 40.687C1.57138 41.5732 2.37319 42.2062 3.25939 42.2062C3.38599 42.2062 3.5548 42.2062 3.7236 42.164C14.2737 39.6742 37.948 28.3645 45.4175 8.82575L48.6669 15.409C49.0045 16.0842 49.6797 16.5062 50.3971 16.5062C50.6925 16.5062 50.9879 16.4218 51.2411 16.2952C52.1695 15.7466 52.5493 14.6072 52.0851 13.6366Z" stroke="#1A2B56" stroke-width="2" stroke-linecap="round" stroke-linejoin="round"/>
<path fill-rule="evenodd" clip-rule="evenodd" d="M11.2342 62.8849H2.96292C2.20332 62.8849 1.57031 62.2519 1.57031 61.4922V52.377C1.57031 51.6174 2.20332 50.9844 2.96292 50.9844H11.2342C11.9938 50.9844 12.6268 51.6174 12.6268 52.377V61.4922C12.6268 62.2519 11.9938 62.8849 11.2342 62.8849Z" fill="#FFE2D2" stroke="#1A2B56" stroke-width="2" stroke-linecap="round" stroke-linejoin="round"/>
<path fill-rule="evenodd" clip-rule="evenodd" d="M29.5076 62.8858H21.2364C20.4768 62.8858 19.8438 62.2527 19.8438 61.4931V41.7012C19.8438 40.9416 20.4768 40.3086 21.2364 40.3086H29.5076C30.2672 40.3086 30.9002 40.9416 30.9002 41.7012V61.4931C30.9002 62.2527 30.2672 62.8858 29.5076 62.8858Z" fill="#FFE2D2" stroke="#1A2B56" stroke-width="2" stroke-linecap="round" stroke-linejoin="round"/>
<path fill-rule="evenodd" clip-rule="evenodd" d="M47.7779 62.8855H39.5489C38.7893 62.8855 38.1562 62.2525 38.1562 61.4929V27.0996C38.1562 26.34 38.7893 25.707 39.5489 25.707H47.8201C48.5797 25.707 49.2127 26.34 49.2127 27.0996V61.4929C49.2127 62.2525 48.5797 62.8855 47.7779 62.8855Z" fill="#FFE2D2" stroke="#1A2B56" stroke-width="2" stroke-linecap="round" stroke-linejoin="round"/>
</svg>
