<svg width="66" height="64" viewBox="0 0 66 64" fill="none" xmlns="http://www.w3.org/2000/svg">
<g clip-path="url(#clip0_2468_2794)">
<path d="M6.40059 41.4062C5.138 43.2784 4.44141 45.4988 4.44141 47.8933C4.44141 54.3369 9.66589 59.5614 16.1094 59.5614C18.4169 59.5614 20.5938 58.8648 22.3788 57.7328" stroke="black" stroke-width="2" stroke-linecap="round" stroke-linejoin="round"/>
<path d="M44.1914 58.1211L44.7574 58.3823C46.2812 59.1224 47.9792 59.5143 49.7642 59.5143C56.2077 59.5143 61.4322 54.2898 61.4322 47.8462C61.4322 45.8435 60.9098 43.9279 59.9955 42.2734" stroke="black" stroke-width="2" stroke-linecap="round" stroke-linejoin="round"/>
<path d="M21.9876 4.70463C20.2461 3.65974 18.2433 3.09375 16.0665 3.09375C9.62293 3.09375 4.39844 8.31824 4.39844 14.7618C4.39844 17.1563 5.13857 19.3767 6.35762 21.2489" stroke="black" stroke-width="2" stroke-linecap="round" stroke-linejoin="round"/>
<path d="M60.0384 20.3346C60.9527 18.6801 61.4752 16.7645 61.4752 14.7618C61.4752 8.31824 56.2507 3.09375 49.8072 3.09375C48.0221 3.09375 46.3242 3.48559 44.8004 4.22572L44.2344 4.48695" stroke="black" stroke-width="2" stroke-linecap="round" stroke-linejoin="round"/>
<path d="M25.5127 3.78906C23.7712 4.26797 22.1168 4.8775 20.5059 5.70471C13.9318 9.01355 8.31544 15.2829 5.87735 23.2068M60.8216 23.1197C59.3848 18.1999 56.6855 13.7156 52.8978 10.2326C52.3753 9.75369 51.8529 9.31831 51.2869 8.88294C48.2393 6.48838 44.7127 4.79042 40.9685 3.78906M40.9685 59.0816C49.4148 56.6435 56.7726 50.3741 60.0814 42.1891C60.5168 41.1442 60.8651 40.0557 61.1263 38.9673M5.39844 38.9238C5.79027 40.1428 6.13857 40.9265 6.66102 41.9714C10.9712 50.5047 17.8066 56.2952 25.1644 58.7768M20.8542 24.687C22.1603 22.2925 24.1631 20.2897 26.5576 18.9836C28.5603 17.8952 30.8678 17.2421 33.3495 17.2421C35.3957 17.2421 37.3549 17.6775 39.0964 18.4612C41.9699 19.7238 44.3209 21.9006 45.8012 24.6435C46.9331 26.6897 47.5426 28.9972 47.5426 31.4789C47.5426 33.6122 47.0637 35.6585 46.2365 37.487C44.8433 40.4476 42.4923 42.8857 39.5318 44.2789C37.6597 45.1931 35.5699 45.6721 33.3495 45.6721C30.9114 45.6721 28.6474 45.0625 26.6447 44.0176C23.9018 42.5374 21.725 40.2299 20.4188 37.4C19.5916 35.6149 19.1127 33.5687 19.1127 31.4789C19.1127 29.0408 19.7222 26.7333 20.8542 24.687Z" stroke="black" stroke-width="2" stroke-linecap="round" stroke-linejoin="round"/>
<path fill-rule="evenodd" clip-rule="evenodd" d="M41.0998 3.13667L41.0127 3.78973L39.097 18.4618C37.3555 17.6782 35.3964 17.2428 33.3501 17.2428C30.912 17.2428 28.561 17.8523 26.5583 18.9843L26.6018 17.7217L26.1229 13.1503L25.5569 3.78973L25.5134 3.00606C25.4698 1.96116 26.297 1.04688 27.3419 1.04688H39.3147C40.3596 1.09041 41.2304 2.04824 41.0998 3.13667Z" fill="#FFE2D2" stroke="black" stroke-width="2" stroke-linecap="round" stroke-linejoin="round"/>
<path fill-rule="evenodd" clip-rule="evenodd" d="M41.1425 60.8211C41.2731 61.9095 40.4024 62.8238 39.3139 62.8238H26.7752C25.6867 62.8238 24.816 61.866 24.9466 60.8211L25.1643 58.8183L26.6446 44.0156C28.6473 45.0605 30.9112 45.67 33.3493 45.67C35.5697 45.67 37.6595 45.1476 39.5316 44.2768L41.0119 59.0796L41.1425 60.8211Z" fill="#FFE2D2" stroke="black" stroke-width="2" stroke-linecap="round" stroke-linejoin="round"/>
<path fill-rule="evenodd" clip-rule="evenodd" d="M19.1126 31.4799C19.1126 33.6133 19.5915 35.616 20.4187 37.401L5.39834 38.9248L3.26501 39.1425C2.17657 39.2731 1.21875 38.4024 1.21875 37.3139V24.7752C1.21875 23.6867 2.17657 22.816 3.26501 22.9466L5.87725 23.2078L20.8541 24.6881C19.7221 26.7344 19.1126 29.0418 19.1126 31.4799Z" fill="#FFE2D2" stroke="black" stroke-width="2" stroke-linecap="round" stroke-linejoin="round"/>
<path fill-rule="evenodd" clip-rule="evenodd" d="M64.8707 24.7766V37.3153C64.8707 38.4038 63.9129 39.2745 62.8245 39.1439L61.1265 38.9698L46.1932 37.4895C47.0204 35.6609 47.4993 33.6582 47.4993 31.4813C47.4993 28.9997 46.8462 26.6922 45.7578 24.6459L60.7782 23.1221L62.8245 22.9044C63.9129 22.8174 64.8707 23.6881 64.8707 24.7766Z" fill="#FFE2D2" stroke="black" stroke-width="2" stroke-linecap="round" stroke-linejoin="round"/>
</g>
<defs>
<clipPath id="clip0_2468_2794">
<rect width="65.7415" height="64" fill="white"/>
</clipPath>
</defs>
</svg>
