<svg width="64" height="64" viewBox="0 0 64 64" fill="none" xmlns="http://www.w3.org/2000/svg">
<g clip-path="url(#clip0_2468_2778)">
<circle cx="33.5" cy="33.5" r="20.5" fill="#FFE2D2"/>
<path d="M17.0131 28.0016C16.8681 27.9779 16.7197 27.9859 16.5781 28.0252C16.4365 28.0646 16.3052 28.1342 16.1932 28.2293C16.0812 28.3244 15.9913 28.4428 15.9296 28.5761C15.8679 28.7095 15.8359 28.8547 15.8359 29.0016C15.8359 29.1485 15.8679 29.2937 15.9296 29.4271C15.9913 29.5604 16.0812 29.6788 16.1932 29.7739C16.3052 29.869 16.4365 29.9387 16.5781 29.978C16.7197 30.0173 16.8681 30.0254 17.0131 30.0016C17.2503 29.9628 17.466 29.8408 17.6216 29.6577C17.7772 29.4745 17.8626 29.242 17.8626 29.0016C17.8626 28.7613 17.7772 28.5287 17.6216 28.3456C17.466 28.1624 17.2503 28.0405 17.0131 28.0016" stroke="#1A2B56" stroke-width="2" stroke-linecap="round" stroke-linejoin="round"/>
<path d="M21.0667 11.68C17.9467 6.02667 10 6 10 6L11.68 17.68C9.48068 20.0526 7.85658 22.8994 6.93333 26H2V42H8.64C10.0117 44.4183 11.82 46.5613 13.9733 48.32V56C13.9802 56.5283 14.1932 57.033 14.5668 57.4066C14.9403 57.7802 15.445 57.9931 15.9733 58H20C20.5283 57.9931 21.033 57.7802 21.4066 57.4066C21.7802 57.033 21.9931 56.5283 22 56V52.6933C27.1939 54.4179 32.8061 54.4179 38 52.6933V56C38.0069 56.5283 38.2198 57.033 38.5934 57.4066C38.967 57.7802 39.4717 57.9931 40 58H44C44.5283 57.9931 45.033 57.7802 45.4066 57.4066C45.7802 57.033 45.9931 56.5283 46 56V48.3733C48.4684 46.4119 50.4676 43.9241 51.8516 41.0914C53.2357 38.2587 53.9697 35.1526 54 32C54 14.6933 35.2 6.96 21.0667 11.68Z" stroke="#1A2B56" stroke-width="2" stroke-linecap="round" stroke-linejoin="round"/>
<rect x="22" y="17" width="21" height="3" rx="1.5" fill="#FFE2D2" stroke="#1A2B56" stroke-width="2"/>
<circle cx="32" cy="11" r="9" fill="white" stroke="#1A2B56" stroke-width="2"/>
<path d="M33.6667 9.37036C33.6667 9.45217 33.7413 9.5185 33.8333 9.5185C33.9254 9.5185 34 9.45217 34 9.37036C33.9993 8.92486 33.8105 8.49576 33.471 8.16798C33.1315 7.84021 32.6661 7.63756 32.1667 7.60006V7.14815C32.1667 7.06634 32.092 7 32 7C31.908 7 31.8333 7.06634 31.8333 7.14815V7.60006C31.1609 7.64966 30.5621 7.99748 30.2409 8.52492C29.9198 9.05242 29.9198 9.68827 30.2409 10.2158C30.562 10.7432 31.1609 11.091 31.8333 11.1406V14.0963C31.4234 14.0603 31.043 13.8904 30.7659 13.6195C30.4888 13.3486 30.3347 12.9958 30.3333 12.6296C30.3333 12.5478 30.2587 12.4815 30.1667 12.4815C30.0746 12.4815 30 12.5478 30 12.6296C30.0007 13.0751 30.1895 13.5042 30.529 13.832C30.8685 14.1598 31.3339 14.3624 31.8333 14.3999V14.8519C31.8333 14.9337 31.908 15 32 15C32.092 15 32.1667 14.9337 32.1667 14.8519V14.3999C32.8391 14.3503 33.4379 14.0025 33.7591 13.4751C34.0802 12.9476 34.0802 12.3117 33.7591 11.7842C33.438 11.2568 32.8391 10.909 32.1667 10.8594V7.90387C32.5766 7.93985 32.9569 8.10975 33.2341 8.38065C33.5112 8.65155 33.6653 9.00425 33.6667 9.37039V9.37036ZM30.3333 9.37036C30.3347 9.00422 30.4888 8.65151 30.7659 8.38061C31.0431 8.10972 31.4234 7.93981 31.8333 7.90383V10.837C31.4234 10.801 31.043 10.6311 30.7659 10.3602C30.4888 10.0892 30.3347 9.73652 30.3333 9.37032V9.37036ZM33.6667 12.6296C33.6653 12.9958 33.5112 13.3485 33.2341 13.6195C32.957 13.8904 32.5766 14.0603 32.1667 14.0963V11.1633C32.5766 11.1993 32.9569 11.3691 33.234 11.64C33.5111 11.9109 33.6653 12.2635 33.6667 12.6297V12.6296Z" fill="#1A2B56" stroke="#1A2B56"/>
<path d="M59.5825 28.2789C59.5116 28.459 59.3818 28.6156 59.2188 28.8124C59.1749 28.8653 59.1286 28.9212 59.0804 28.9812L59.0803 28.9811L59.0748 28.9884C59.05 29.0209 59.0245 29.0519 58.9985 29.0814C58.8567 29.0395 58.7207 28.9849 58.5944 28.9157L58.5945 28.9157L58.5867 28.9116C58.2682 28.7469 58.0438 28.5106 57.9641 28.1844C57.8952 27.8968 57.951 27.735 58.0224 27.6387L58.0225 27.6387L58.0261 27.6336C58.1462 27.4662 58.4308 27.3564 58.8076 27.39L58.8076 27.3901L58.8146 27.3906C59.1694 27.4155 59.4579 27.5705 59.5785 27.775L59.5825 28.2789ZM59.5825 28.2789C59.6719 28.0328 59.6389 27.8775 59.5786 27.775L59.5825 28.2789ZM58.1617 29.8613C58.1498 29.855 58.1379 29.8486 58.1261 29.8421C57.5859 29.555 57.1245 29.0968 56.9616 28.4163C56.8223 27.8453 56.9109 27.3556 57.1887 26.989C57.5781 26.4674 58.2626 26.2879 58.868 26.339C59.4841 26.3887 60.1368 26.6976 60.4593 27.2438L60.4594 27.244C60.6937 27.6414 60.7468 28.1239 60.5512 28.6631L60.5501 28.6659L60.5501 28.6659C60.4761 28.8647 60.3647 29.0492 60.246 29.2142L58.1617 29.8613ZM58.1617 29.8613C57.7046 30.2285 57.1873 30.5528 56.6605 30.8161L56.6605 30.8161L56.6556 30.8186C55.9579 31.1802 55.2201 31.4004 54.4259 31.4745L54.4092 31.4761L54.3927 31.4791C54.1074 31.5318 53.935 31.804 53.977 32.0731L53.9771 32.0736C54.0196 32.3438 54.26 32.5362 54.527 32.527L54.5383 32.5266L54.5495 32.5256C55.472 32.4382 56.3368 32.1859 57.1489 31.7633L57.1505 31.7624C57.7353 31.4545 58.3399 31.0915 58.8685 30.6476L58.8685 30.6476L58.8721 30.6445C59.0303 30.5082 59.1904 30.3697 59.3472 30.2256C59.758 30.2846 60.1607 30.2869 60.4934 30.2487L60.4934 30.2488L60.5001 30.2479C61.7619 30.0799 62.888 29.3332 63.8234 28.4137C64.7617 27.4912 65.54 26.3638 66.1071 25.3682C66.2547 25.1159 66.1584 24.8153 65.9448 24.6678L65.9445 24.6675C65.6997 24.4989 65.3679 24.5679 65.2153 24.8234L65.2152 24.8234L65.2114 24.83C64.6829 25.7571 63.9717 26.793 63.1297 27.6283C62.284 28.4674 61.3386 29.0724 60.3417 29.2038L58.1617 29.8613Z" fill="#1A2B56" stroke="#1A2B56" stroke-width="0.75"/>
<path d="M63.0403 24.3125C62.7562 24.1813 62.6264 23.8374 62.7379 23.5527L62.7471 23.5292L62.7593 23.5072C62.8952 23.2628 63.2133 23.1227 63.5075 23.2533L63.5148 23.2565L63.5218 23.26C64.1082 23.5504 64.6102 23.437 65.3189 23.234L65.32 23.2336C65.3188 23.234 65.3194 23.2338 65.323 23.2326C65.3277 23.231 65.3376 23.2278 65.355 23.2218L65.4552 23.1877C65.536 23.1604 65.6421 23.1251 65.7564 23.0899C65.9666 23.0253 66.2634 22.9419 66.4725 22.9365L66.4823 22.9363L66.4823 22.9364C66.8407 22.9365 67.1214 23.1517 67.1873 23.4365C67.2525 23.6855 67.2147 23.9532 67.1676 24.1721L67.1652 24.1829L67.1651 24.1828C67.1474 24.2544 67.125 24.3379 67.1041 24.4158C67.0905 24.4665 67.0775 24.5149 67.0669 24.556C67.0366 24.6736 67.0185 24.7579 67.0128 24.8116C67.0115 24.8347 67.0101 24.8579 67.0087 24.8811C66.95 25.8763 66.8862 26.9568 67.0948 27.845C67.1781 28.1737 66.979 28.4874 66.6574 28.5514L63.0403 24.3125ZM63.0403 24.3125C63.9976 24.7803 64.8476 24.609 65.6686 24.3664L65.7113 24.3538L65.7391 24.3377C65.7401 24.3376 65.755 24.3308 65.7921 24.3166C65.8315 24.3014 65.8835 24.2825 65.9432 24.2622C65.9363 24.2889 65.9292 24.3169 65.9218 24.3472C65.8951 24.4563 65.867 24.5835 65.8599 24.7049C65.7907 25.7204 65.7127 27.009 65.9739 28.1016C66.0399 28.3918 66.3335 28.6159 66.6572 28.5515L63.0403 24.3125Z" fill="#1A2B56" stroke="#1A2B56" stroke-width="0.75"/>
</g>
<defs>
<clipPath id="clip0_2468_2778">
<rect width="64" height="64" fill="white"/>
</clipPath>
</defs>
</svg>
